<?xml version="1.0" encoding="UTF-8"?>
<svg version="1.1" xmlns="http://www.w3.org/2000/svg" width="299" height="168">
<path d="M0 0 C98.67 0 197.34 0 299 0 C299 55.44 299 110.88 299 168 C200.33 168 101.66 168 0 168 C0 112.56 0 57.12 0 0 Z " fill="#E2E4E9" transform="translate(0,0)"/>
<path d="M0 0 C30.03 0 60.06 0 91 0 C91 31.35 91 62.7 91 95 C60.97 95 30.94 95 0 95 C0 63.65 0 32.3 0 0 Z " fill="#FEFEFE" transform="translate(104,8)"/>
<path d="M0 0 C1.74162415 -0.00422974 1.74162415 -0.00422974 3.51843262 -0.00854492 C5.44628601 -0.00550858 5.44628601 -0.00550858 7.41308594 -0.00241089 C8.77120002 -0.00376491 10.12931374 -0.00554485 11.48742676 -0.00772095 C15.18567295 -0.01229513 18.88389136 -0.01050579 22.58213806 -0.00734186 C26.44408241 -0.00481818 30.30602431 -0.00715582 34.16796875 -0.00872803 C40.65462676 -0.0105497 47.1412734 -0.00814348 53.62792969 -0.00338745 C61.13796016 0.00205517 68.6479635 0.00029251 76.15799332 -0.00521386 C82.59449624 -0.00974505 89.03099096 -0.0103955 95.46749496 -0.00777519 C99.3167541 -0.00621245 103.16600046 -0.00601856 107.01525879 -0.00931168 C110.63326799 -0.01219049 114.25124205 -0.01021452 117.86924744 -0.00441742 C119.83832755 -0.00245427 121.80741061 -0.00544365 123.77648926 -0.00854492 C124.93757202 -0.0057251 126.09865479 -0.00290527 127.29492188 0 C128.81808014 0.00056554 128.81808014 0.00056554 130.37200928 0.0011425 C132.64746094 0.12698364 132.64746094 0.12698364 133.64746094 1.12698364 C133.74607692 2.74825788 133.7754486 4.37380732 133.77685547 5.99807739 C133.78000763 7.03585327 133.78315979 8.07362915 133.78640747 9.14285278 C133.78337112 10.83656006 133.78337112 10.83656006 133.78027344 12.56448364 C133.78123016 13.71489136 133.78218689 14.86529907 133.78317261 16.05056763 C133.78385463 18.48847508 133.78199884 20.92638434 133.77783203 23.36428833 C133.77248411 27.11074882 133.77777633 30.85708941 133.78417969 34.60354614 C133.78351891 36.96552558 133.78223776 39.32750493 133.78027344 41.68948364 C133.78229767 42.81862183 133.7843219 43.94776001 133.78640747 45.1111145 C133.78167923 46.66777832 133.78167923 46.66777832 133.77685547 48.25588989 C133.77605988 49.17442749 133.77526428 50.09296509 133.77444458 51.03933716 C133.64746094 53.12698364 133.64746094 53.12698364 132.64746094 54.12698364 C130.86550222 54.22553274 129.07960346 54.25330464 127.29492188 54.25396729 C125.55329773 54.25819702 125.55329773 54.25819702 123.77648926 54.26251221 C121.84863586 54.25947586 121.84863586 54.25947586 119.88183594 54.25637817 C118.52372185 54.2577322 117.16560813 54.25951214 115.80749512 54.26168823 C112.10924893 54.26626241 108.41103051 54.26447307 104.71278381 54.26130915 C100.85083946 54.25878546 96.98889756 54.26112311 93.12695312 54.26269531 C86.64029512 54.26451698 80.15364847 54.26211076 73.66699219 54.25735474 C66.15696171 54.25191212 58.64695838 54.25367478 51.13692856 54.25918114 C44.70042564 54.26371234 38.26393091 54.26436279 31.82742691 54.26174247 C27.97816777 54.26017973 24.12892141 54.25998584 20.27966309 54.26327896 C16.66165388 54.26615777 13.04367983 54.2641818 9.42567444 54.2583847 C7.45659433 54.25642155 5.48751126 54.25941093 3.51843262 54.26251221 C2.35734985 54.25969238 1.19626709 54.25687256 0 54.25396729 C-1.01543884 54.25359026 -2.03087769 54.25321323 -3.0770874 54.25282478 C-5.35253906 54.12698364 -5.35253906 54.12698364 -6.35253906 53.12698364 C-6.45115504 51.50570941 -6.48052673 49.88015997 -6.48193359 48.25588989 C-6.48508575 47.21811401 -6.48823792 46.18033813 -6.4914856 45.1111145 C-6.48946136 43.98197632 -6.48743713 42.85283813 -6.48535156 41.68948364 C-6.48678665 39.96387207 -6.48678665 39.96387207 -6.48825073 38.20339966 C-6.48893275 35.7654922 -6.48707697 33.32758295 -6.48291016 30.88967896 C-6.47756224 27.14321847 -6.48285445 23.39687787 -6.48925781 19.65042114 C-6.48859703 17.28844171 -6.48731588 14.92646235 -6.48535156 12.56448364 C-6.48737579 11.43534546 -6.48940002 10.30620728 -6.4914856 9.14285278 C-6.48833344 8.1050769 -6.48518127 7.06730103 -6.48193359 5.99807739 C-6.481138 5.07953979 -6.48034241 4.1610022 -6.47952271 3.21463013 C-6.22550016 -0.96157134 -3.58583931 0.0013314 0 0 Z " fill="#FCFAF8" transform="translate(158.3525390625,106.87301635742188)"/>
<path d="M0 0 C1.74162415 -0.00422974 1.74162415 -0.00422974 3.51843262 -0.00854492 C5.44628601 -0.00550858 5.44628601 -0.00550858 7.41308594 -0.00241089 C8.77120002 -0.00376491 10.12931374 -0.00554485 11.48742676 -0.00772095 C15.18567295 -0.01229513 18.88389136 -0.01050579 22.58213806 -0.00734186 C26.44408241 -0.00481818 30.30602431 -0.00715582 34.16796875 -0.00872803 C40.65462676 -0.0105497 47.1412734 -0.00814348 53.62792969 -0.00338745 C61.13796016 0.00205517 68.6479635 0.00029251 76.15799332 -0.00521386 C82.59449624 -0.00974505 89.03099096 -0.0103955 95.46749496 -0.00777519 C99.3167541 -0.00621245 103.16600046 -0.00601856 107.01525879 -0.00931168 C110.63326799 -0.01219049 114.25124205 -0.01021452 117.86924744 -0.00441742 C119.83832755 -0.00245427 121.80741061 -0.00544365 123.77648926 -0.00854492 C124.93757202 -0.0057251 126.09865479 -0.00290527 127.29492188 0 C128.81808014 0.00056554 128.81808014 0.00056554 130.37200928 0.0011425 C132.64746094 0.12698364 132.64746094 0.12698364 133.64746094 1.12698364 C133.74607692 2.74825788 133.7754486 4.37380732 133.77685547 5.99807739 C133.78000763 7.03585327 133.78315979 8.07362915 133.78640747 9.14285278 C133.78337112 10.83656006 133.78337112 10.83656006 133.78027344 12.56448364 C133.78123016 13.71489136 133.78218689 14.86529907 133.78317261 16.05056763 C133.78385463 18.48847508 133.78199884 20.92638434 133.77783203 23.36428833 C133.77248411 27.11074882 133.77777633 30.85708941 133.78417969 34.60354614 C133.78351891 36.96552558 133.78223776 39.32750493 133.78027344 41.68948364 C133.78229767 42.81862183 133.7843219 43.94776001 133.78640747 45.1111145 C133.78167923 46.66777832 133.78167923 46.66777832 133.77685547 48.25588989 C133.77605988 49.17442749 133.77526428 50.09296509 133.77444458 51.03933716 C133.64746094 53.12698364 133.64746094 53.12698364 132.64746094 54.12698364 C130.86550222 54.22553274 129.07960346 54.25330464 127.29492188 54.25396729 C125.55329773 54.25819702 125.55329773 54.25819702 123.77648926 54.26251221 C121.84863586 54.25947586 121.84863586 54.25947586 119.88183594 54.25637817 C118.52372185 54.2577322 117.16560813 54.25951214 115.80749512 54.26168823 C112.10924893 54.26626241 108.41103051 54.26447307 104.71278381 54.26130915 C100.85083946 54.25878546 96.98889756 54.26112311 93.12695312 54.26269531 C86.64029512 54.26451698 80.15364847 54.26211076 73.66699219 54.25735474 C66.15696171 54.25191212 58.64695838 54.25367478 51.13692856 54.25918114 C44.70042564 54.26371234 38.26393091 54.26436279 31.82742691 54.26174247 C27.97816777 54.26017973 24.12892141 54.25998584 20.27966309 54.26327896 C16.66165388 54.26615777 13.04367983 54.2641818 9.42567444 54.2583847 C7.45659433 54.25642155 5.48751126 54.25941093 3.51843262 54.26251221 C2.35734985 54.25969238 1.19626709 54.25687256 0 54.25396729 C-1.01543884 54.25359026 -2.03087769 54.25321323 -3.0770874 54.25282478 C-5.35253906 54.12698364 -5.35253906 54.12698364 -6.35253906 53.12698364 C-6.45115504 51.50570941 -6.48052673 49.88015997 -6.48193359 48.25588989 C-6.48508575 47.21811401 -6.48823792 46.18033813 -6.4914856 45.1111145 C-6.48946136 43.98197632 -6.48743713 42.85283813 -6.48535156 41.68948364 C-6.48678665 39.96387207 -6.48678665 39.96387207 -6.48825073 38.20339966 C-6.48893275 35.7654922 -6.48707697 33.32758295 -6.48291016 30.88967896 C-6.47756224 27.14321847 -6.48285445 23.39687787 -6.48925781 19.65042114 C-6.48859703 17.28844171 -6.48731588 14.92646235 -6.48535156 12.56448364 C-6.48737579 11.43534546 -6.48940002 10.30620728 -6.4914856 9.14285278 C-6.48833344 8.1050769 -6.48518127 7.06730103 -6.48193359 5.99807739 C-6.481138 5.07953979 -6.48034241 4.1610022 -6.47952271 3.21463013 C-6.22550016 -0.96157134 -3.58583931 0.0013314 0 0 Z " fill="#F4F7FD" transform="translate(13.3525390625,106.87301635742188)"/>
<path d="M0 0 C30.36 0 60.72 0 92 0 C92 15.84 92 31.68 92 48 C61.64 48 31.28 48 0 48 C0 32.16 0 16.32 0 0 Z " fill="#FCFDFB" transform="translate(199,55)"/>
<path d="M0 0 C30.36 0 60.72 0 92 0 C92 15.84 92 31.68 92 48 C61.64 48 31.28 48 0 48 C0 32.16 0 16.32 0 0 Z " fill="#FEFEFE" transform="translate(8,55)"/>
<path d="M0 0 C30.36 0 60.72 0 92 0 C92 14.19 92 28.38 92 43 C61.64 43 31.28 43 0 43 C0 28.81 0 14.62 0 0 Z " fill="#FDFDFD" transform="translate(199,8)"/>
<path d="M0 0 C30.36 0 60.72 0 92 0 C92 14.19 92 28.38 92 43 C61.64 43 31.28 43 0 43 C0 28.81 0 14.62 0 0 Z " fill="#FBFCFE" transform="translate(8,8)"/>
<path d="M0 0 C6.88112255 5.81467552 12.20330316 12.25598043 13.6796875 21.3515625 C14.60543486 32.79440693 13.0210961 41.74368415 5.6171875 50.7265625 C-1.21236417 57.83879429 -10.0437853 61.38490967 -19.8203125 61.7265625 C-29.2016898 61.62359616 -37.75549786 57.98137077 -44.56640625 51.51171875 C-51.5661414 42.8906641 -54.17676206 33.24750413 -53.3203125 22.3515625 C-51.47028596 11.95692187 -45.77659869 4.47376065 -37.3203125 -1.6484375 C-25.99180162 -8.21897381 -10.71485333 -7.61223586 0 0 Z " fill="#3BA756" transform="translate(169.3203125,27.6484375)"/>
<path d="M0 0 C2.31 0 4.62 0 7 0 C7.33 3.63 7.66 7.26 8 11 C10.31 11 12.62 11 15 11 C15.33 9.68 15.66 8.36 16 7 C18.31 7 20.62 7 23 7 C23 10.63 23 14.26 23 18 C28.61 18 34.22 18 40 18 C40 12.06 40 6.12 40 0 C41.98 0 43.96 0 46 0 C46 5.94 46 11.88 46 18 C49.3 18 52.6 18 56 18 C56 14.04 56 10.08 56 6 C57.98 6 59.96 6 62 6 C62 9.96 62 13.92 62 18 C62.66 18 63.32 18 64 18 C64 14.04 64 10.08 64 6 C65.98 6 67.96 6 70 6 C70 9.96 70 13.92 70 18 C70.66 18 71.32 18 72 18 C72 14.04 72 10.08 72 6 C73.98 6 75.96 6 78 6 C78 9.96 78 13.92 78 18 C78.66 18 79.32 18 80 18 C80 12.72 80 7.44 80 2 C81.98 2 83.96 2 86 2 C86 7.28 86 12.56 86 18 C89.3 18 92.6 18 96 18 C96 14.37 96 10.74 96 7 C97.98 7 99.96 7 102 7 C102 10.63 102 14.26 102 18 C102.99 18 103.98 18 105 18 C105 18.66 105 19.32 105 20 C104.01 20 103.02 20 102 20 C102 25.61 102 31.22 102 37 C100.02 37 98.04 37 96 37 C96 31.39 96 25.78 96 20 C95.34 20 94.68 20 94 20 C94 25.28 94 30.56 94 36 C92.02 36 90.04 36 88 36 C88 30.72 88 25.44 88 20 C87.34 20 86.68 20 86 20 C86 25.61 86 31.22 86 37 C84.02 37 82.04 37 80 37 C80 31.39 80 25.78 80 20 C79.34 20 78.68 20 78 20 C78 25.61 78 31.22 78 37 C76.02 37 74.04 37 72 37 C72 31.39 72 25.78 72 20 C71.34 20 70.68 20 70 20 C70 25.61 70 31.22 70 37 C68.02 37 66.04 37 64 37 C64 31.39 64 25.78 64 20 C63.34 20 62.68 20 62 20 C62 25.61 62 31.22 62 37 C60.02 37 58.04 37 56 37 C56 31.39 56 25.78 56 20 C52.7 20 49.4 20 46 20 C46 25.61 46 31.22 46 37 C44.02 37 42.04 37 40 37 C40 31.39 40 25.78 40 20 C39.34 20 38.68 20 38 20 C38 25.28 38 30.56 38 36 C36.02 36 34.04 36 32 36 C32 30.72 32 25.44 32 20 C29.03 20 26.06 20 23 20 C23 25.61 23 31.22 23 37 C19.18745377 37.02682792 15.37509388 37.04675477 11.5625 37.0625 C10.47388672 37.07087891 9.38527344 37.07925781 8.26367188 37.08789062 C7.22919922 37.09111328 6.19472656 37.09433594 5.12890625 37.09765625 C4.17056885 37.10289307 3.21223145 37.10812988 2.22485352 37.11352539 C0 37 0 37 -1 36 C-2.98 36 -4.96 36 -7 36 C-7 30.72 -7 25.44 -7 20 C-7.66 20 -8.32 20 -9 20 C-9 25.28 -9 30.56 -9 36 C-10.98 36 -12.96 36 -15 36 C-15 30.72 -15 25.44 -15 20 C-16.32 20 -17.64 20 -19 20 C-19 19.34 -19 18.68 -19 18 C-15.37 18 -11.74 18 -8 18 C-8 14.04 -8 10.08 -8 6 C-5.69 6 -3.38 6 -1 6 C-0.67 4.02 -0.34 2.04 0 0 Z " fill="#979ED5" transform="translate(179,115)"/>
<path d="M0 0 C6.17219818 3.47370136 9.53888921 8.02405386 12.0625 14.5625 C13.34340922 21.60750074 12.88445067 27.57196751 9.6875 34 C5.61081206 39.62339881 0.32021014 43.05394442 -6.3125 45 C-12.97621079 45.8461855 -18.4933634 44.38343936 -24.3125 41 C-30.32511168 35.80933711 -33.92967203 30.01969368 -34.6875 22.0625 C-34.40092388 15.3279611 -31.55708625 9.16233463 -27.3125 4 C-18.93524279 -2.2744639 -9.88495878 -4.46320866 0 0 Z " fill="#FBFCFC" transform="translate(160.3125,34)"/>
<path d="M0 0 C2.31 0 4.62 0 7 0 C7.33 3.63 7.66 7.26 8 11 C10.31 11 12.62 11 15 11 C15.33 9.68 15.66 8.36 16 7 C18.31 7 20.62 7 23 7 C23 16.9 23 26.8 23 37 C19.225625 37.020625 15.45125 37.04125 11.5625 37.0625 C10.37084229 37.071604 9.17918457 37.08070801 7.95141602 37.09008789 C6.55427368 37.09383423 6.55427368 37.09383423 5.12890625 37.09765625 C4.17056885 37.10289307 3.21223145 37.10812988 2.22485352 37.11352539 C0 37 0 37 -1 36 C-2.98 36 -4.96 36 -7 36 C-7 30.72 -7 25.44 -7 20 C-7.66 20 -8.32 20 -9 20 C-9 25.28 -9 30.56 -9 36 C-10.98 36 -12.96 36 -15 36 C-15 30.72 -15 25.44 -15 20 C-16.32 20 -17.64 20 -19 20 C-19 19.34 -19 18.68 -19 18 C-15.37 18 -11.74 18 -8 18 C-8 14.04 -8 10.08 -8 6 C-5.69 6 -3.38 6 -1 6 C-0.67 4.02 -0.34 2.04 0 0 Z " fill="#C593A5" transform="translate(179,115)"/>
<path d="M0 0 C4.35699098 2.46622131 7.04335342 5.33670683 9.3125 9.875 C9.7087444 15.71960492 9.27176533 19.64696458 6.3125 24.875 C2.44116098 28.96846503 -1.28964992 30.99989659 -6.9375 31.1875 C-11.73307232 31.10952321 -15.05681642 30.04479369 -18.6875 26.875 C-22.42596471 22.08209653 -23.34093382 18.29915138 -23.07421875 12.23828125 C-22.28128358 7.39256632 -19.62980039 4.70512177 -16.0625 1.5625 C-10.83094803 -2.15465535 -5.95356591 -1.81634214 0 0 Z " fill="#4688EF" transform="translate(60.6875,64.125)"/>
<path d="M0 0 C26.07 0 52.14 0 79 0 C79 1.98 79 3.96 79 6 C52.93 6 26.86 6 0 6 C0 4.02 0 2.04 0 0 Z " fill="#E74A41" transform="translate(206,17)"/>
<path d="M0 0 C2.61744251 7.85232753 1.5828254 16.80445203 -1.54296875 24.359375 C-5.8432153 32.15285132 -11.68445147 37.84582642 -20 41 C-20.99 41 -21.98 41 -23 41 C-25.90909091 34.63636364 -25.90909091 34.63636364 -25 31 C-23.12155002 29.58547713 -21.14943057 28.46985348 -19.10546875 27.30859375 C-14.88649542 24.68641181 -12.58755725 21.42692475 -10.6875 16.8125 C-9.79067625 11.83920467 -9.83601889 7.03786412 -10 2 C-6.38026598 0.68373308 -3.90432869 0 0 0 Z " fill="#F7BA2E" transform="translate(182,46)"/>
<path d="M0 0 C10.96690401 0.47001017 18.73883796 3.79983321 26.3046875 11.87109375 C29.04113321 15.30741383 32 19.47361276 32 24 C28.7 24.66 25.4 25.32 22 26 C21.61070312 25.33613281 21.22140625 24.67226563 20.8203125 23.98828125 C16.56541207 17.27259739 12.55222358 13.61049529 5 11 C3.34052958 10.63251282 1.67490847 10.28908563 0 10 C0 6.7 0 3.4 0 0 Z " fill="#4789F0" transform="translate(150,22)"/>
<path d="M0 0 C4.35699098 2.46622131 7.04335342 5.33670683 9.3125 9.875 C9.4453125 11.75 9.4453125 11.75 9.4375 13.875 C9.44136719 14.926875 9.44136719 14.926875 9.4453125 16 C9.3125 17.875 9.3125 17.875 8.3125 19.875 C6.58085937 19.44739697 4.852268 19.00743693 3.125 18.5625 C2.16207031 18.31886719 1.19914062 18.07523438 0.20703125 17.82421875 C-5.58057481 15.92625887 -8.49908287 13.26389127 -12 8.3125 C-12.69738281 7.34183594 -13.39476562 6.37117188 -14.11328125 5.37109375 C-15.6875 2.875 -15.6875 2.875 -15.6875 0.875 C-10.73353905 -2.42764063 -5.37603959 -1.64014767 0 0 Z " fill="#3BA759" transform="translate(60.6875,64.125)"/>
<path d="M0 0 C17.82 0 35.64 0 54 0 C54 1.98 54 3.96 54 6 C36.18 6 18.36 6 0 6 C0 4.02 0 2.04 0 0 Z " fill="#F7B51D" transform="translate(206,27)"/>
<path d="M0 0 C14.85 0 29.7 0 45 0 C45 1.98 45 3.96 45 6 C30.15 6 15.3 6 0 6 C0 4.02 0 2.04 0 0 Z " fill="#4788F1" transform="translate(206,37)"/>
<path d="M0 0 C3.66429424 0.93956262 5.1724973 2.64813931 7.4375 5.625 C7.98417869 8.97340698 7.77788506 10.83785954 6.4375 13.9375 C3.4093732 16.49248199 0.34976174 16.94050498 -3.5625 16.625 C-6.91195256 14.56379842 -7.46602841 12.9197743 -8.6875 9.1875 C-8.5625 5.625 -8.5625 5.625 -5.9375 2.6875 C-2.5625 0.625 -2.5625 0.625 0 0 Z " fill="#41A95A" transform="translate(25.5625,70.375)"/>
<path d="M0 0 C1.1151293 3.3453879 1.13299072 5.91758812 1.125 9.4375 C1.12757813 10.57058594 1.13015625 11.70367187 1.1328125 12.87109375 C1 16 1 16 0 20 C-4.455 19.01 -4.455 19.01 -9 18 C-9.85298376 14.32612505 -10.10789471 10.9552607 -10.0625 7.1875 C-10.05347656 6.21167969 -10.04445312 5.23585938 -10.03515625 4.23046875 C-10.02355469 3.49441406 -10.01195312 2.75835937 -10 2 C-6.38026598 0.68373308 -3.90432869 0 0 0 Z " fill="#E6473E" transform="translate(182,46)"/>
<path d="M0 0 C0.33 1.98 0.66 3.96 1 6 C2.32 4.68 3.64 3.36 5 2 C7 4 7 4 7.4375 7.875 C7.34104055 11.18476475 7.11838617 11.85291415 4.9375 14.5625 C1.10852228 16.43625505 -0.93334276 16.12962701 -5 15 C-6.9375 13.875 -6.9375 13.875 -8 12 C-8.5 8.625 -8.5 8.625 -8 5 C-4.06382979 0 -4.06382979 0 0 0 Z " fill="#E7473E" transform="translate(83,71)"/>
<path d="M0 0 C2.45870258 2.08617189 2.86016034 3.31828165 3.5 6.4375 C2.79323744 10.0596581 0.59958675 11.4638178 -2 14 C-2.87238858 16.67790896 -2.87238858 16.67790896 -3 19 C-4.65 19 -6.3 19 -8 19 C-8.3125 15.8125 -8.3125 15.8125 -8 12 C-5.5 9.1875 -5.5 9.1875 -3 7 C-3 6.34 -3 5.68 -3 5 C-4.65 5 -6.3 5 -8 5 C-8.33 5.66 -8.66 6.32 -9 7 C-10.65 7 -12.3 7 -14 7 C-13.69054606 4.13755104 -13.31514492 2.39393114 -11.5 0.125 C-7.60779748 -1.62649113 -4.05791753 -1.12976113 0 0 Z " fill="#4A8AF1" transform="translate(155,43)"/>
<path d="M0 0 C8.58 0 17.16 0 26 0 C26 1.98 26 3.96 26 6 C17.42 6 8.84 6 0 6 C0 4.02 0 2.04 0 0 Z " fill="#41A959" transform="translate(206,17)"/>
<path d="M0 0 C7.59 0 15.18 0 23 0 C23 1.98 23 3.96 23 6 C15.41 6 7.82 6 0 6 C0 4.02 0 2.04 0 0 Z " fill="#32A550" transform="translate(206,27)"/>
<path d="M0 0 C6.93 0 13.86 0 21 0 C21 1.98 21 3.96 21 6 C14.07 6 7.14 6 0 6 C0 4.02 0 2.04 0 0 Z " fill="#E34F4B" transform="translate(251,37)"/>
<path d="M0 0 C2.31 0 4.62 0 7 0 C7 5.61 7 11.22 7 17 C4.69 17 2.38 17 0 17 C0 11.39 0 5.78 0 0 Z " fill="#F8C042" transform="translate(195,135)"/>
<path d="M0 0 C2.31 0 4.62 0 7 0 C7 5.61 7 11.22 7 17 C4.69 17 2.38 17 0 17 C0 11.39 0 5.78 0 0 Z " fill="#F8C042" transform="translate(187,135)"/>
<path d="M0 0 C2.31 0 4.62 0 7 0 C7 5.61 7 11.22 7 17 C4.69 17 2.38 17 0 17 C0 11.39 0 5.78 0 0 Z " fill="#F9C142" transform="translate(179,135)"/>
<path d="M0 0 C1.98 0 3.96 0 6 0 C6 5.94 6 11.88 6 18 C4.02 18 2.04 18 0 18 C0 12.06 0 6.12 0 0 Z " fill="#E95345" transform="translate(179,115)"/>
<path d="M0 0 C1.98 0 3.96 0 6 0 C6 5.94 6 11.88 6 18 C4.02 18 2.04 18 0 18 C0 12.06 0 6.12 0 0 Z " fill="#E74137" transform="translate(219,115)"/>
<path d="M0 0 C1.98 0 3.96 0 6 0 C6 5.61 6 11.22 6 17 C4.02 17 2.04 17 0 17 C0 11.39 0 5.78 0 0 Z " fill="#F8BA29" transform="translate(275,135)"/>
<path d="M0 0 C1.98 0 3.96 0 6 0 C6 5.61 6 11.22 6 17 C4.02 17 2.04 17 0 17 C0 11.39 0 5.78 0 0 Z " fill="#F8BA2C" transform="translate(259,135)"/>
<path d="M0 0 C1.98 0 3.96 0 6 0 C6 5.61 6 11.22 6 17 C4.02 17 2.04 17 0 17 C0 11.39 0 5.78 0 0 Z " fill="#F8BA2C" transform="translate(251,135)"/>
<path d="M0 0 C1.98 0 3.96 0 6 0 C6 5.61 6 11.22 6 17 C4.02 17 2.04 17 0 17 C0 11.39 0 5.78 0 0 Z " fill="#F8BA2C" transform="translate(243,135)"/>
<path d="M0 0 C1.98 0 3.96 0 6 0 C6 5.61 6 11.22 6 17 C4.02 17 2.04 17 0 17 C0 11.39 0 5.78 0 0 Z " fill="#F8BA2C" transform="translate(235,135)"/>
<path d="M0 0 C1.98 0 3.96 0 6 0 C6 5.61 6 11.22 6 17 C4.02 17 2.04 17 0 17 C0 11.39 0 5.78 0 0 Z " fill="#F8BA2C" transform="translate(219,135)"/>
<path d="M0 0 C1.98 0 3.96 0 6 0 C6 5.28 6 10.56 6 16 C4.02 16 2.04 16 0 16 C0 10.72 0 5.44 0 0 Z " fill="#F8B927" transform="translate(267,135)"/>
<path d="M0 0 C1.98 0 3.96 0 6 0 C6 5.28 6 10.56 6 16 C4.02 16 2.04 16 0 16 C0 10.72 0 5.44 0 0 Z " fill="#F8BA2B" transform="translate(211,135)"/>
<path d="M0 0 C1.98 0 3.96 0 6 0 C6 5.28 6 10.56 6 16 C4.02 16 2.04 16 0 16 C0 10.72 0 5.44 0 0 Z " fill="#F8B928" transform="translate(172,135)"/>
<path d="M0 0 C1.98 0 3.96 0 6 0 C6 5.28 6 10.56 6 16 C4.02 16 2.04 16 0 16 C0 10.72 0 5.44 0 0 Z " fill="#F8BB2D" transform="translate(164,135)"/>
<path d="M0 0 C1.98 0 3.96 0 6 0 C6 5.28 6 10.56 6 16 C4.02 16 2.04 16 0 16 C0 10.72 0 5.44 0 0 Z " fill="#E74034" transform="translate(259,117)"/>
<path d="M0 0 C1.32 0 2.64 0 4 0 C4 7.59 4 15.18 4 23 C2.68 23 1.36 23 0 23 C0 15.41 0 7.82 0 0 Z " fill="#79AAF5" transform="translate(63,124)"/>
<path d="M0 0 C0.99 0.66 1.98 1.32 3 2 C1.627162 5.36840664 0.40170355 6.6920202 -2.875 8.25 C-3.55304687 8.58515625 -4.23109375 8.9203125 -4.9296875 9.265625 C-7 10 -7 10 -11 10 C-11.375 7.8125 -11.375 7.8125 -11 5 C-7.58088116 1.42185237 -5.08512535 -0.96205074 0 0 Z " fill="#F6BB33" transform="translate(28,71)"/>
<path d="M0 0 C0 4.95 0 9.9 0 15 C-3.72398088 11.27601912 -6.35478923 8.40868462 -9 4 C-9 3.34 -9 2.68 -9 2 C-5.53785351 -0.05164237 -4.40610765 0 0 0 Z " fill="#F1BA38" transform="translate(54,63)"/>
<path d="M0 0 C1.99954746 -0.04254356 4.00041636 -0.04080783 6 0 C6.33 0.33 6.66 0.66 7 1 C9.33297433 1.04092937 11.66705225 1.04241723 14 1 C14 1.33 14 1.66 14 2 C12.02 2 10.04 2 8 2 C8 7.28 8 12.56 8 18 C7.34 18 6.68 18 6 18 C6 14.04 6 10.08 6 6 C4.02 6 2.04 6 0 6 C0 4.02 0 2.04 0 0 Z " fill="#F7E5E3" transform="translate(251,115)"/>
<path d="M0 0 C1.98 0 3.96 0 6 0 C6 3.96 6 7.92 6 12 C4.02 12 2.04 12 0 12 C0 8.04 0 4.08 0 0 Z " fill="#E74033" transform="translate(251,121)"/>
<path d="M0 0 C1.98 0 3.96 0 6 0 C6 3.96 6 7.92 6 12 C4.02 12 2.04 12 0 12 C0 8.04 0 4.08 0 0 Z " fill="#E74238" transform="translate(243,121)"/>
<path d="M0 0 C1.98 0 3.96 0 6 0 C6 3.96 6 7.92 6 12 C4.02 12 2.04 12 0 12 C0 8.04 0 4.08 0 0 Z " fill="#E74239" transform="translate(235,121)"/>
<path d="M0 0 C0 6.27 0 12.54 0 19 C-1.32 19 -2.64 19 -4 19 C-4.08117951 16.58265458 -4.14056926 14.16805051 -4.1875 11.75 C-4.21263672 11.06808594 -4.23777344 10.38617188 -4.26367188 9.68359375 C-4.31078966 6.44817246 -4.19825578 4.33986706 -2.55078125 1.515625 C-1 0 -1 0 0 0 Z " fill="#7BABF5" transform="translate(59,128)"/>
<path d="M0 0 C1.98 0 3.96 0 6 0 C6 3.63 6 7.26 6 11 C4.02 11 2.04 11 0 11 C0 7.37 0 3.74 0 0 Z " fill="#E74033" transform="translate(275,122)"/>
<path d="M0 0 C1.98 0 3.96 0 6 0 C6 3.63 6 7.26 6 11 C4.02 11 2.04 11 0 11 C0 7.37 0 3.74 0 0 Z " fill="#E74334" transform="translate(172,122)"/>
<path d="M0 0 C1.32 0.33 2.64 0.66 4 1 C4 5.95 4 10.9 4 16 C2.68 16 1.36 16 0 16 C0 10.72 0 5.44 0 0 Z " fill="#7FADF5" transform="translate(28,131)"/>
<path d="M0 0 C1.98 0 3.96 0 6 0 C6 3.3 6 6.6 6 10 C4.02 10 2.04 10 0 10 C0 6.7 0 3.4 0 0 Z " fill="#F8B92A" transform="translate(227,142)"/>
<path d="M0 0 C1.98 0 3.96 0 6 0 C6 3.3 6 6.6 6 10 C4.02 10 2.04 10 0 10 C0 6.7 0 3.4 0 0 Z " fill="#F8BB31" transform="translate(203,142)"/>
<path d="M0 0 C-0.33 5.61 -0.66 11.22 -1 17 C-1.33 17 -1.66 17 -2 17 C-2 13.7 -2 10.4 -2 7 C-3.98 7 -5.96 7 -8 7 C-8 5.02 -8 3.04 -8 1 C-2.25 0 -2.25 0 0 0 Z " fill="#F8F3EB" transform="translate(235,135)"/>
<path d="M0 0 C-0.33 5.61 -0.66 11.22 -1 17 C-1.33 17 -1.66 17 -2 17 C-2 13.7 -2 10.4 -2 7 C-3.98 7 -5.96 7 -8 7 C-8 5.02 -8 3.04 -8 1 C-2.25 0 -2.25 0 0 0 Z " fill="#F7F2E8" transform="translate(211,135)"/>
<path d="M0 0 C1.98 0 3.96 0 6 0 C6 3.3 6 6.6 6 10 C4.02 10 2.04 10 0 10 C0 6.7 0 3.4 0 0 Z " fill="#E7453B" transform="translate(195,123)"/>
<path d="M0 0 C0 2.97 0 5.94 0 9 C-2.31 9 -4.62 9 -7 9 C-7.1875 5.625 -7.1875 5.625 -7 2 C-4 0 -4 0 0 0 Z " fill="#7EADF5" transform="translate(94,138)"/>
<path d="M0 0 C0 4.95 0 9.9 0 15 C-1.32 15 -2.64 15 -4 15 C-4 10.38 -4 5.76 -4 1 C-2 0 -2 0 0 0 Z " fill="#7CACF5" transform="translate(24,132)"/>
<path d="M0 0 C2.31 0 4.62 0 7 0 C7 0.33 7 0.66 7 1 C5.02 1 3.04 1 1 1 C1 4.63 1 8.26 1 12 C3.64 12 6.28 12 9 12 C9 12.66 9 13.32 9 14 C2.4 14 -4.2 14 -11 14 C-11 13.34 -11 12.68 -11 12 C-7.37 12 -3.74 12 0 12 C0 8.04 0 4.08 0 0 Z " fill="#B6A9CA" transform="translate(171,121)"/>
<path d="M0 0 C1.32 0.33 2.64 0.66 4 1 C4 5.29 4 9.58 4 14 C2.68 14 1.36 14 0 14 C0 9.38 0 4.76 0 0 Z " fill="#7FADF5" transform="translate(130,133)"/>
<path d="M0 0 C0 4.62 0 9.24 0 14 C-1.32 14 -2.64 14 -4 14 C-4 9.71 -4 5.42 -4 1 C-2 0 -2 0 0 0 Z " fill="#7AAAF5" transform="translate(126,133)"/>
<path d="M0 0 C2.97 0 5.94 0 9 0 C9 1.98 9 3.96 9 6 C6.03 6 3.06 6 0 6 C0 4.02 0 2.04 0 0 Z " fill="#F8BB33" transform="translate(232,17)"/>
<path d="M0 0 C0 2.64 0 5.28 0 8 C-2.64 8 -5.28 8 -8 8 C-7.6641593 4.89347355 -7.40950721 3.39585697 -5.125 1.1875 C-3 0 -3 0 0 0 Z " fill="#EFB83E" transform="translate(83,71)"/>
<path d="M0 0 C5.61 0 11.22 0 17 0 C17 0.99 17 1.98 17 3 C11.39 3 5.78 3 0 3 C0 2.01 0 1.02 0 0 Z " fill="#E7453C" transform="translate(253,39)"/>
<path d="M0 0 C0.99 0 1.98 0 3 0 C3 5.28 3 10.56 3 16 C2.01 16 1.02 16 0 16 C0 10.72 0 5.44 0 0 Z " fill="#E7453C" transform="translate(181,116)"/>
<path d="M0 0 C2.64 0 5.28 0 8 0 C8 1.98 8 3.96 8 6 C5.36 6 2.72 6 0 6 C0 4.02 0 2.04 0 0 Z " fill="#E74238" transform="translate(252,27)"/>
<path d="M0 0 C1.98 0.99 1.98 0.99 4 2 C4 5.3 4 8.6 4 12 C2.68 12 1.36 12 0 12 C0 8.04 0 4.08 0 0 Z " fill="#7BAAF5" transform="translate(36,135)"/>
<path d="M0 0 C1.32 0 2.64 0 4 0 C4 3.3 4 6.6 4 10 C2.68 10 1.36 10 0 10 C0 6.7 0 3.4 0 0 Z " fill="#7CABF5" transform="translate(95,137)"/>
<path d="M0 0 C1.98 0 3.96 0 6 0 C6 1.98 6 3.96 6 6 C4.02 6 2.04 6 0 6 C0 4.02 0 2.04 0 0 Z " fill="#E74537" transform="translate(188,127)"/>
<path d="M0 0 C0 2.97 0 5.94 0 9 C-1.32 9 -2.64 9 -4 9 C-4.1875 5.625 -4.1875 5.625 -4 2 C-1 0 -1 0 0 0 Z " fill="#79A9F5" transform="translate(118,138)"/>
<path d="M0 0 C2.16874252 0.50603992 3.99967627 0.99983813 6 2 C4.95125002 4.62187494 4.35068687 5.79371361 1.875 7.25 C1.25625 7.4975 0.6375 7.745 0 8 C0 5.36 0 2.72 0 0 Z " fill="#E24D41" transform="translate(25,71)"/>
<path d="M0 0 C1.32 0.33 2.64 0.66 4 1 C4 3.31 4 5.62 4 8 C2.68 8 1.36 8 0 8 C0 5.36 0 2.72 0 0 Z " fill="#7DACF5" transform="translate(79,139)"/>
<path d="M0 0 C1.32 0 2.64 0 4 0 C4 2.31 4 4.62 4 7 C2.68 7 1.36 7 0 7 C0 4.69 0 2.38 0 0 Z " fill="#83AFF5" transform="translate(44,140)"/>
<path d="M0 0 C1.32 0 2.64 0 4 0 C4 2.97 4 5.94 4 9 C3.01 9 2.02 9 1 9 C0.67 6.03 0.34 3.06 0 0 Z " fill="#9BBCF6" transform="translate(90,138)"/>
<path d="M0 0 C1.32 0.33 2.64 0.66 4 1 C4 2.98 4 4.96 4 7 C2.68 7 1.36 7 0 7 C0 4.69 0 2.38 0 0 Z " fill="#7CACF5" transform="translate(106,140)"/>
<path d="M0 0 C1.98 0.495 1.98 0.495 4 1 C4 2.32 4 3.64 4 5 C2.35 5 0.7 5 -1 5 C-0.67 3.35 -0.34 1.7 0 0 Z " fill="#5B95F2" transform="translate(148,63)"/>
<path d="M0 0 C1.32 0.33 2.64 0.66 4 1 C2.25 5.875 2.25 5.875 0 7 C0 4.69 0 2.38 0 0 Z " fill="#5287E8" transform="translate(83,71)"/>
</svg>
